<?xml version="1.0" encoding="UTF-8"?>
<svg version="1.1" xmlns="http://www.w3.org/2000/svg" width="1024" height="1024">
<path d="M0 0 C337.92 0 675.84 0 1024 0 C1024 337.92 1024 675.84 1024 1024 C686.08 1024 348.16 1024 0 1024 C0 686.08 0 348.16 0 0 Z " fill="#1C232E" transform="translate(0,0)"/>
<path d="M0 0 C7.70491151 7.96120794 10.63435918 17.08116303 10.46826172 28.02954102 C10.03004203 37.72888001 7.07174144 44.91540602 0.359375 51.91796875 C-9.93245779 61 -9.93245779 61 -16 61 C-16 61.66 -16 62.32 -16 63 C-15.46632813 63.13535156 -14.93265625 63.27070312 -14.3828125 63.41015625 C-3.4538382 66.56783568 6.47203858 73.93693598 12.09448242 83.94897461 C14.89200091 89.62806789 15.67469596 94.5215993 15.5625 100.8125 C15.54606445 102.12408081 15.54606445 102.12408081 15.52929688 103.4621582 C15.17281277 114.167574 11.69890632 122.26590316 4.2109375 129.9765625 C-15.24049455 147.77840314 -40.90740889 149.05751111 -66 148 C-84.02030814 146.75823161 -100.82163528 141.16366381 -113.3125 127.5625 C-121.54291823 117.39417166 -123.20957841 105.7083072 -122 93 C-119.88980387 83.24508136 -113.3247802 75.08158766 -105.265625 69.41796875 C-100.96359157 66.7254892 -96.50399314 64.33479056 -92 62 C-92.7734375 61.59910156 -93.546875 61.19820312 -94.34375 60.78515625 C-104.88361315 55.03258243 -111.88226154 48.65828288 -116.1484375 37.23828125 C-119.22296072 25.54663101 -116.56447138 15.98782492 -110.71875 5.7578125 C-103.14767977 -5.55477499 -89.76284897 -11.85680942 -76.875 -14.75 C-50.52114302 -19.80925454 -21.10201113 -18.36593189 0 0 Z " fill="#EF5A1D" transform="translate(552,505)"/>
<path d="M0 0 C9.32030974 7.87989823 17.3126428 19.63392044 19.140625 31.9296875 C19.75840702 41.47018002 20.03763966 51.04331317 16.140625 59.9296875 C15.7384375 60.89132812 15.33625 61.85296875 14.921875 62.84375 C8.11448407 77.7821912 -3.08769258 86.93229352 -18.09765625 92.984375 C-30.60993717 97.2672208 -46.94003441 96.42350756 -58.859375 90.9296875 C-62.71582684 88.82707422 -66.30254579 86.50308877 -69.859375 83.9296875 C-70.91125 83.1871875 -71.963125 82.4446875 -73.046875 81.6796875 C-77.25082053 77.56916299 -80.71077697 72.89232552 -83.859375 67.9296875 C-83.859375 67.2696875 -83.859375 66.6096875 -83.859375 65.9296875 C-86.02724926 66.52950664 -88.1936163 67.13477408 -90.359375 67.7421875 C-91.5659375 68.07863281 -92.7725 68.41507812 -94.015625 68.76171875 C-97.34145806 69.73484234 -100.56128126 70.9065119 -103.79589844 72.14624023 C-107.41650153 73.5208871 -111.07738137 74.78074711 -114.734375 76.0546875 C-115.5706543 76.34674072 -116.40693359 76.63879395 -117.26855469 76.93969727 C-128.79090941 80.95914763 -140.32597721 84.94207656 -151.859375 88.9296875 C-152.189375 97.8396875 -152.519375 106.7496875 -152.859375 115.9296875 C-156.324375 115.4346875 -156.324375 115.4346875 -159.859375 114.9296875 C-161.83542023 114.79434635 -163.81371047 114.6881721 -165.79296875 114.61328125 C-166.85322266 114.57138672 -167.91347656 114.52949219 -169.00585938 114.48632812 C-170.09189453 114.44701172 -171.17792969 114.40769531 -172.296875 114.3671875 C-173.40998047 114.32400391 -174.52308594 114.28082031 -175.66992188 114.23632812 C-178.39963344 114.13088862 -181.12942643 114.02876721 -183.859375 113.9296875 C-183.95862323 109.05507275 -184.03102081 104.18105253 -184.07910156 99.30566406 C-184.09915509 97.64898425 -184.12640529 95.99237468 -184.16113281 94.3359375 C-184.20993012 91.94773992 -184.23240564 89.56048203 -184.25 87.171875 C-184.27064514 86.43726044 -184.29129028 85.70264587 -184.31256104 84.94577026 C-184.31479414 79.76981256 -183.10905246 76.91590917 -179.859375 72.9296875 C-175.69692225 69.34804211 -172.73910764 68.69544109 -167.50390625 68.34130859 C-164.50626421 67.87472583 -162.16038719 66.92105885 -159.38671875 65.6953125 C-152.86144689 62.89613614 -146.24132036 60.47796452 -139.546875 58.1171875 C-138.3393457 57.68849365 -137.13181641 57.2597998 -135.88769531 56.81811523 C-127.04464386 53.68450833 -118.18844821 50.5884013 -109.3190918 47.5300293 C-105.32110558 46.14914956 -101.34816356 44.74129287 -97.40625 43.20703125 C-93.859375 41.9296875 -93.859375 41.9296875 -90.859375 41.9296875 C-90.941875 40.7128125 -91.024375 39.4959375 -91.109375 38.2421875 C-91.07021255 25.78852817 -84.92437774 13.74121 -76.66796875 4.6484375 C-55.01833859 -15.92572507 -24.10753085 -17.45490622 0 0 Z " fill="#00A4A2" transform="translate(681.859375,224.0703125)"/>
<path d="M0 0 C0.87662292 -0.00978378 1.75324585 -0.01956757 2.65643311 -0.02964783 C5.56626867 -0.05963451 8.47605809 -0.08099831 11.38598633 -0.09985352 C12.3793783 -0.10642534 13.37277027 -0.11299717 14.39626503 -0.11976814 C19.65625204 -0.15237883 24.91621867 -0.17682344 30.17626953 -0.19628906 C34.5287834 -0.21409325 38.8806483 -0.248897 43.23291016 -0.29882812 C48.48726141 -0.35904099 53.74101145 -0.38976681 58.9956913 -0.39946175 C60.99676821 -0.40801727 62.99782903 -0.42683775 64.99870872 -0.45620537 C67.80453631 -0.49516406 70.60802814 -0.49614884 73.4140625 -0.48828125 C74.64797478 -0.51828217 74.64797478 -0.51828217 75.90681458 -0.54888916 C81.42424341 -0.47965064 84.22228221 0.93027639 88.2221117 4.7254324 C91.18831249 8.08814191 90.68531854 11.61890923 90.69165039 15.86791992 C90.69909775 17.05359055 90.69909775 17.05359055 90.70669556 18.26321411 C90.72133384 20.88568993 90.72812281 23.50810522 90.73364258 26.13061523 C90.73939375 27.95184328 90.74515149 29.77307131 90.75091553 31.59429932 C90.76143101 35.41760541 90.76726973 39.24089045 90.77075195 43.06420898 C90.77623028 47.95798123 90.80024182 52.85147433 90.82872391 57.74515915 C90.84737175 61.50959071 90.85255709 65.27395542 90.85408783 69.03842926 C90.85711129 70.8421099 90.86512949 72.64578946 90.87827301 74.44942474 C90.89537445 76.97715792 90.89344312 79.50421447 90.88696289 82.03198242 C90.89617767 82.77402924 90.90539246 83.51607605 90.91488647 84.28060913 C90.87708925 88.99965763 90.01763745 92.20023248 87.53051758 96.20874023 C82.35324232 100.99771985 78.21357862 101.36234743 71.40649414 101.38574219 C70.57849304 101.39231339 69.75049194 101.39888458 68.8973999 101.40565491 C66.1553132 101.42537622 63.41328125 101.43704832 60.67114258 101.44702148 C59.73383049 101.45109701 58.7965184 101.45517254 57.83080292 101.45937157 C52.8690564 101.48022799 47.9073375 101.49453119 42.94555664 101.50390625 C37.82651595 101.51496578 32.70791052 101.54936168 27.58902359 101.58907795 C23.6478394 101.61525238 19.70675876 101.62359886 15.7654953 101.62718773 C13.87889417 101.63205206 11.99229762 101.64366168 10.10578156 101.66222572 C7.46087895 101.6866334 4.81710042 101.68564925 2.17211914 101.67871094 C1.39783569 101.691521 0.62355225 101.70433105 -0.17419434 101.7175293 C-5.70528831 101.66483802 -8.96399978 100.47702156 -13.46948242 97.20874023 C-16.90666015 93.17910093 -16.91441704 89.12896124 -16.90527344 84.04125977 C-16.91534927 83.23247375 -16.92542511 82.42368774 -16.93580627 81.59039307 C-16.96423935 78.9239713 -16.97016038 76.25811655 -16.97338867 73.59155273 C-16.98303293 71.73216522 -16.99312564 69.87277998 -17.00364685 68.01339722 C-17.02159649 64.11800867 -17.02716907 60.22281956 -17.02539062 56.32739258 C-17.02508582 51.34483898 -17.0660424 46.36356859 -17.11770725 41.38131905 C-17.15112436 37.54131235 -17.15714658 33.7016141 -17.15556145 29.8614769 C-17.15909324 28.02510021 -17.17231637 26.18871484 -17.19555855 24.35248184 C-17.22508271 21.77908664 -17.21628481 19.20845305 -17.19824219 16.63500977 C-17.22352997 15.50634995 -17.22352997 15.50634995 -17.24932861 14.35488892 C-17.15536466 9.05921736 -15.5563965 6.38519122 -11.95167446 2.54141045 C-8.44347152 -0.61288902 -4.45993466 0.03122966 0 0 Z " fill="#E63E36" transform="translate(652.469482421875,369.791259765625)"/>
<path d="M0 0 C9.50907832 6.89408179 14.28838861 15.79778828 16.1875 27.25 C16.44280346 30.30768713 16.47169578 33.34271039 16.4621582 36.40991211 C16.46726913 37.27608154 16.47238007 38.14225098 16.47764587 39.03466797 C16.4914217 41.86563226 16.49059583 44.69635018 16.48828125 47.52734375 C16.4921716 49.50509226 16.49650697 51.48283994 16.50126648 53.46058655 C16.50870037 57.58841678 16.50845566 61.71616139 16.50317383 65.84399414 C16.49734843 71.14265378 16.51439747 76.44096734 16.5375185 81.73956966 C16.55221043 85.81523191 16.55313436 89.89080958 16.55000877 93.96649361 C16.55052315 95.92139948 16.55578251 97.87630994 16.56582069 99.83119011 C16.5780951 102.55297761 16.57145077 105.274074 16.55981445 107.99584961 C16.56745819 108.80673538 16.57510193 109.61762115 16.58297729 110.45307922 C16.5617218 112.69126892 16.5617218 112.69126892 16.1875 116.25 C12.49775862 118.70982759 10.61886906 118.50777165 6.21875 118.515625 C5.20367371 118.51849518 5.20367371 118.51849518 4.16809082 118.52142334 C2.73917264 118.52278265 1.31024201 118.51910394 -0.11865234 118.51074219 C-2.30464441 118.50003846 -4.48981472 118.51064544 -6.67578125 118.5234375 C-8.06510598 118.52211586 -9.4544302 118.51955337 -10.84375 118.515625 C-12.10767578 118.51336914 -13.37160156 118.51111328 -14.67382812 118.50878906 C-17.8125 118.25 -17.8125 118.25 -20.8125 116.25 C-21.19776917 113.18479919 -21.19776917 113.18479919 -21.21313477 109.18920898 C-21.22360336 108.09854881 -21.22360336 108.09854881 -21.23428345 106.9858551 C-21.25433955 104.57248494 -21.25376036 102.15954008 -21.25390625 99.74609375 C-21.26567761 98.06656236 -21.27904124 96.38704144 -21.29393005 94.70753479 C-21.33020663 90.27388323 -21.35033498 85.84032424 -21.36547852 81.40655518 C-21.39024193 74.3348556 -21.43027276 67.26336123 -21.48737907 60.19185066 C-21.50360196 57.72977452 -21.50747755 55.26789368 -21.51039124 52.80577087 C-21.27616469 39.97909001 -21.27616469 39.97909001 -25.75 28.25 C-29.98727252 24.14112968 -35.51850318 24.79402423 -41.10546875 24.8515625 C-47.08393743 25.49413764 -50.98269392 27.83754567 -55.8125 31.25 C-56.61785187 31.81518341 -57.42320374 32.38036682 -58.25296021 32.962677 C-62.22193644 36.27265262 -64.49590189 38.79753063 -65.6149292 43.93133545 C-66.01273929 48.43029717 -65.90283517 52.91954631 -65.8046875 57.4296875 C-65.80272021 59.09115653 -65.80516349 60.75263607 -65.8117981 62.41409302 C-65.8193908 66.76366054 -65.77611712 71.1111205 -65.71917725 75.46026611 C-65.63619768 82.44062255 -65.62986878 89.42139704 -65.62613297 96.40216446 C-65.61729621 98.83723034 -65.58587448 101.27120825 -65.55099487 103.70602417 C-65.54116289 105.19317315 -65.53178922 106.68032526 -65.52294922 108.16748047 C-65.49888504 110.11531937 -65.49888504 110.11531937 -65.47433472 112.10250854 C-65.8125 115.25 -65.8125 115.25 -67.12869263 117.168396 C-69.94699215 118.978748 -72.70395322 118.63989641 -76 118.6484375 C-77.04837036 118.65274277 -77.04837036 118.65274277 -78.11791992 118.65713501 C-79.59392101 118.65917425 -81.06994921 118.65365403 -82.54589844 118.64111328 C-84.80465138 118.6250558 -87.06161518 118.6409647 -89.3203125 118.66015625 C-90.75521228 118.65817379 -92.19011095 118.65433006 -93.625 118.6484375 C-94.93082031 118.64505371 -96.23664063 118.64166992 -97.58203125 118.63818359 C-100.8125 118.25 -100.8125 118.25 -102.49059486 117.02463531 C-104.21474654 114.70999082 -104.18965616 113.33999202 -104.19345093 110.46765137 C-104.2019104 109.48340683 -104.21036987 108.49916229 -104.21908569 107.48509216 C-104.213013 106.40655472 -104.20694031 105.32801727 -104.20068359 104.21679688 C-104.20594055 103.08000992 -104.21119751 101.94322296 -104.21661377 100.77198792 C-104.22984694 97.00410329 -104.22106361 93.23663912 -104.2109375 89.46875 C-104.21295727 86.85705484 -104.2158679 84.24536022 -104.21963501 81.63366699 C-104.22509399 76.15595928 -104.2178973 70.67837289 -104.20361328 65.20068359 C-104.18728636 58.86639862 -104.19257478 52.53240332 -104.2090925 46.19812536 C-104.2243423 40.10641477 -104.22273401 34.01483269 -104.2139473 27.92311096 C-104.2119418 25.32987935 -104.21441673 22.73664038 -104.22138596 20.14341736 C-104.22897945 16.52314489 -104.21742499 12.90343365 -104.20068359 9.28320312 C-104.20675629 8.20466568 -104.21282898 7.12612823 -104.21908569 6.01490784 C-104.21062622 5.0306633 -104.20216675 4.04641876 -104.19345093 3.03234863 C-104.19231985 2.17621223 -104.19118877 1.32007584 -104.19002342 0.43799591 C-103.72471392 -2.25877791 -103.0023168 -3.14548417 -100.8125 -4.75 C-97.67382812 -5.13818359 -97.67382812 -5.13818359 -93.84375 -5.1484375 C-93.16703247 -5.15130768 -92.49031494 -5.15417786 -91.79309082 -5.15713501 C-90.36416791 -5.15917397 -88.93521698 -5.15365569 -87.50634766 -5.14111328 C-85.32000275 -5.12505511 -83.13550621 -5.14096534 -80.94921875 -5.16015625 C-79.55989176 -5.15817379 -78.17056591 -5.15433004 -76.78125 -5.1484375 C-75.51732422 -5.14505371 -74.25339844 -5.14166992 -72.95117188 -5.13818359 C-69.8125 -4.75 -69.8125 -4.75 -67.90893555 -3.44848633 C-66.06370608 -0.59004468 -66.23300085 2.63267389 -66.125 5.9375 C-66.09083984 6.63939453 -66.05667969 7.34128906 -66.02148438 8.06445312 C-65.93920053 9.79241387 -65.8741676 11.52118072 -65.8125 13.25 C-64.65234375 12.25419922 -64.65234375 12.25419922 -63.46875 11.23828125 C-45.586137 -3.9884411 -22.15342336 -13.71751711 0 0 Z " fill="#F0F0F1" transform="translate(394.8125,530.75)"/>
<path d="M0 0 C8.40270773 6.24280773 13.34484131 15.03632155 14.90447998 25.39712524 C15.41820503 29.77869892 15.51022117 34.11317982 15.51660156 38.52099609 C15.52404892 39.77614014 15.52404892 39.77614014 15.53164673 41.05664062 C15.54613017 43.79558152 15.55304236 46.53446478 15.55859375 49.2734375 C15.56435083 51.1853536 15.57010849 53.0972697 15.5758667 55.00918579 C15.58633315 59.00173204 15.59220616 62.99425839 15.59570312 66.98681641 C15.60121906 72.11172955 15.62533068 77.23638118 15.65367508 82.36121178 C15.67224581 86.30218293 15.67750378 90.24308987 15.679039 94.1841011 C15.68207202 96.0748197 15.69012227 97.96553699 15.70322418 99.85621262 C15.7201896 102.4894737 15.71842957 105.12207827 15.71191406 107.75537109 C15.72112885 108.5397757 15.73034363 109.3241803 15.73983765 110.13235474 C15.72296143 112.2984314 15.72296143 112.2984314 15.35546875 115.75 C10.48100053 118.99964548 4.75402457 118.08300751 -0.95068359 118.06567383 C-3.13689894 118.06251104 -5.32176417 118.08598905 -7.5078125 118.11132812 C-8.89713371 118.11360094 -10.28645856 118.1143047 -11.67578125 118.11328125 C-12.93970703 118.11626221 -14.20363281 118.11924316 -15.50585938 118.12231445 C-18.64453125 117.75 -18.64453125 117.75 -20.31565857 116.668396 C-22.3478669 113.73464593 -22.03132034 111.2208993 -22.04516602 107.68334961 C-22.05563461 106.60951019 -22.05563461 106.60951019 -22.0663147 105.51397705 C-22.08633267 103.14331358 -22.08579148 100.77308438 -22.0859375 98.40234375 C-22.0977132 96.74905732 -22.1110779 95.09578151 -22.1259613 93.44252014 C-22.16220366 89.08160225 -22.18235551 84.72077827 -22.19750977 80.35974121 C-22.22229063 73.40489669 -22.26238147 66.45026035 -22.31941032 59.49560738 C-22.33560274 57.07733815 -22.33950591 54.65926803 -22.34242249 52.24095154 C-22.38446694 43.42915117 -22.83699353 35.17261315 -25.64453125 26.75 C-32.50866305 23.72978201 -41.03709361 23.30094328 -48.203125 25.5546875 C-54.85950575 28.99559733 -60.38330699 34.48877574 -65.64453125 39.75 C-65.75346742 42.07609919 -65.79874597 44.37360708 -65.80224609 46.70068359 C-65.80732681 47.42752853 -65.81240753 48.15437347 -65.81764221 48.90324402 C-65.82836797 50.48672645 -65.83697944 52.07022425 -65.84376144 53.65372849 C-65.85551495 56.15828219 -65.8749583 58.66266066 -65.8968811 61.16714478 C-65.95861701 68.28975616 -66.0125684 75.41235094 -66.04589844 82.53515625 C-66.06681504 86.88715541 -66.10209561 91.2388378 -66.14665604 95.59065628 C-66.16084273 97.2516266 -66.16954448 98.91265299 -66.17271042 100.57368088 C-66.17760563 102.89630129 -66.20072664 105.21807771 -66.22802734 107.54052734 C-66.22502121 108.22947586 -66.22201508 108.91842438 -66.21891785 109.62825012 C-66.2680811 112.43693803 -66.35390602 114.32720054 -67.96865845 116.67633057 C-70.78250839 118.47905967 -73.54437183 118.13991815 -76.83203125 118.1484375 C-77.88040161 118.15274277 -77.88040161 118.15274277 -78.94995117 118.15713501 C-80.42595226 118.15917425 -81.90198046 118.15365403 -83.37792969 118.14111328 C-85.63668263 118.1250558 -87.89364643 118.1409647 -90.15234375 118.16015625 C-91.58724353 118.15817379 -93.0221422 118.15433006 -94.45703125 118.1484375 C-95.76285156 118.14505371 -97.06867187 118.14166992 -98.4140625 118.13818359 C-101.64453125 117.75 -101.64453125 117.75 -103.32262611 116.52463531 C-105.04677779 114.20999082 -105.02168741 112.83999202 -105.02548218 109.96765137 C-105.03394165 108.98340683 -105.04240112 107.99916229 -105.05111694 106.98509216 C-105.04504425 105.90655472 -105.03897156 104.82801727 -105.03271484 103.71679688 C-105.0379718 102.58000992 -105.04322876 101.44322296 -105.04864502 100.27198792 C-105.06187819 96.50410329 -105.05309486 92.73663912 -105.04296875 88.96875 C-105.04498852 86.35705484 -105.04789915 83.74536022 -105.05166626 81.13366699 C-105.05712524 75.65595928 -105.04992855 70.17837289 -105.03564453 64.70068359 C-105.01931761 58.36639862 -105.02460603 52.03240332 -105.04112375 45.69812536 C-105.05637355 39.60641477 -105.05476526 33.51483269 -105.04597855 27.42311096 C-105.04397305 24.82987935 -105.04644798 22.23664038 -105.05341721 19.64341736 C-105.0610107 16.02314489 -105.04945624 12.40343365 -105.03271484 8.78320312 C-105.03878754 7.70466568 -105.04486023 6.62612823 -105.05111694 5.51490784 C-105.04265747 4.5306633 -105.034198 3.54641876 -105.02548218 2.53234863 C-105.0243511 1.67621223 -105.02322002 0.82007584 -105.02205467 -0.06200409 C-104.55678768 -2.75853155 -103.83287875 -3.64431063 -101.64453125 -5.25 C-98.52172852 -5.65405273 -98.52172852 -5.65405273 -94.7109375 -5.68359375 C-93.69941872 -5.69145653 -93.69941872 -5.69145653 -92.66746521 -5.69947815 C-91.24276098 -5.70589439 -89.81800374 -5.70456639 -88.39331055 -5.69604492 C-86.21762303 -5.6875414 -84.04456822 -5.71628342 -81.86914062 -5.74804688 C-80.4830737 -5.74965927 -79.09700214 -5.74908062 -77.7109375 -5.74609375 C-76.45224854 -5.74794678 -75.19355957 -5.7497998 -73.89672852 -5.75170898 C-70.64453125 -5.25 -70.64453125 -5.25 -68.22729492 -3.43481445 C-65.93563813 -0.2714585 -66.25195314 2.15039104 -66.39453125 6 C-66.430625 7.26328125 -66.46671875 8.5265625 -66.50390625 9.828125 C-66.5503125 10.79234375 -66.59671875 11.7565625 -66.64453125 12.75 C-65.96390625 12.1209375 -65.28328125 11.491875 -64.58203125 10.84375 C-46.80988106 -4.84868048 -21.69619342 -13.99320382 0 0 Z " fill="#F0F0F1" transform="translate(685.64453125,531.25)"/>
<path d="M0 0 C11.36091173 8.1935123 19.32923021 18.24318096 22.9296875 31.9296875 C23.50439462 35.79390873 23.52412193 39.59838143 23.52734375 43.5 C23.53958984 44.26892578 23.55183594 45.03785156 23.56445312 45.83007812 C23.60040022 60.02918129 17.75864177 72.24617192 8.33984375 82.6875 C-3.2553929 92.91361979 -15.66846737 98.05567641 -31.03515625 98 C-31.916875 98.01611328 -32.79859375 98.03222656 -33.70703125 98.04882812 C-48.00906159 98.05931348 -60.10703039 91.8318907 -70.37109375 82.10546875 C-81.93580768 69.8894996 -86.34107139 55.31701756 -86.10546875 38.70703125 C-85.31213077 28.56078729 -80.57371872 18.06977857 -73.66015625 10.6875 C-73.07621094 10.02621094 -72.49226563 9.36492187 -71.890625 8.68359375 C-53.38351946 -11.18044824 -22.81338511 -14.78987689 0 0 Z " fill="#F2F2F3" transform="translate(541.66015625,355.3125)"/>
<path d="M0 0 C10.95068673 8.40251515 19.38379701 19.16123339 22 33 C23.06996497 42.76933471 22.96388671 52.88480678 19 62 C18.66935547 62.94746094 18.66935547 62.94746094 18.33203125 63.9140625 C13.64978855 75.46517902 1.28511903 86.05759344 -9.66796875 91.26953125 C-22.86669169 96.78687038 -39.74248308 97.27499651 -53.20703125 92.328125 C-63.26003275 87.54767674 -71.05880094 80.33616996 -77 71 C-77.47695313 70.5771875 -77.95390625 70.154375 -78.4453125 69.71875 C-80.62121906 67.31322516 -81.47869172 64.77400345 -82.625 61.75 C-83.05039062 60.65171875 -83.47578125 59.5534375 -83.9140625 58.421875 C-87.68219068 46.5482049 -87.59032146 33.19838997 -82 22 C-81.64550781 21.27941406 -81.29101562 20.55882812 -80.92578125 19.81640625 C-73.56803568 7.1666544 -59.19206248 -4.83451918 -45.1875 -8.875 C-29.41397434 -12.23492192 -13.3514246 -9.1523506 0 0 Z " fill="#F57214" transform="translate(409,222)"/>
<path d="M0 0 C4.55870661 3.93024294 7.08062882 7.97301117 8 14 C8.18499244 21.05283684 6.77942969 26.6882081 2 32 C-5.42659083 38.23643204 -13.98277401 39.37780266 -23.375 39.3125 C-24.21063477 39.30758545 -25.04626953 39.3026709 -25.90722656 39.29760742 C-34.86700944 39.12745183 -43.47600914 37.66279918 -50 31 C-53.92383004 25.64062238 -55.24130986 19.57831671 -55 13 C-53.88423747 6.48159784 -50.19071265 1.93296305 -45 -2 C-30.71450834 -10.07228124 -13.65171928 -8.6521766 0 0 Z " fill="#1E242E" transform="translate(522,588)"/>
<path d="M0 0 C30.86666667 0 30.86666667 0 39.875 5.875 C43.92618224 9.92618224 45.37642982 14.10287364 45.51879883 19.81152344 C45.50949341 20.83294434 45.50949341 20.83294434 45.5 21.875 C45.49572998 22.58172852 45.49145996 23.28845703 45.48706055 24.01660156 C45.29539715 29.88705514 44.07619638 33.79015784 40 38 C31.34790397 46.01901583 22.23661404 45.11584138 11 45 C11 52.59 11 60.18 11 68 C7.37 68 3.74 68 0 68 C0 45.56 0 23.12 0 0 Z " fill="#F7F7F7" transform="translate(350,669)"/>
<path d="M0 0 C5.85078426 3.40320618 9.32458507 8.72375522 11.4375 15.0625 C12.12001918 23.14084173 11.92290275 30.12391582 7.4375 37.0625 C4.9375 39.9375 4.9375 39.9375 2.4375 42.0625 C1.81875 42.619375 1.2 43.17625 0.5625 43.75 C-5.22066769 47.32195651 -11.99911034 48.0410046 -18.56640625 46.6328125 C-25.14120165 44.54843509 -30.49679799 40.60532043 -33.98828125 34.6171875 C-37.26496666 26.8927676 -37.74452632 18.55797369 -34.61328125 10.671875 C-27.36884916 -1.93969449 -13.34750371 -5.92092009 0 0 Z " fill="#F6F6F7" transform="translate(472.5625,691.9375)"/>
<path d="M0 0 C1.25127686 0.00918457 1.25127686 0.00918457 2.52783203 0.01855469 C8.8672075 0.17929563 14.1134079 1.13741991 19.625 4.4375 C20.594375 5.015 21.56375 5.5925 22.5625 6.1875 C26.32493763 10.29197741 27.75674621 15.04169663 28 20.5625 C27.41275879 26.6306592 24.8525453 31.09569672 20.625 35.4375 C13.37349916 40.2004176 4.2606649 42.47890671 -4.375 41.4375 C-13.4512908 39.50367132 -19.87586832 35.97916631 -25.375 28.4375 C-27.36608443 22.4642467 -27.45025506 15.62783438 -24.6875 10 C-17.67742335 2.23207723 -10.1861507 -0.12730122 0 0 Z " fill="#1E242D" transform="translate(498.375,514.5625)"/>
<path d="M0 0 C5.00325635 0.56375843 9.28654581 1.66969945 13.98046875 3.4765625 C14.62719543 3.72272308 15.27392212 3.96888367 15.94024658 4.22250366 C18.02510702 5.01710602 20.10620591 5.82110902 22.1875 6.625 C25.06629293 7.72508525 27.94708204 8.81988548 30.828125 9.9140625 C31.53500961 10.18317444 32.24189423 10.45228638 32.97019958 10.72955322 C39.50768689 13.21081566 46.09361278 15.53919089 52.72143555 17.76806641 C57.95812443 19.55109801 62.97762674 21.68254713 68 24 C65.81060393 26.18939607 63.61740134 28.36437967 61.375 30.5 C57.58510793 34.48936007 56.73959753 37.57628474 56 43 C49.99629808 41.79503011 44.30839711 40.20951178 38.5625 38.1015625 C37.79752197 37.82533051 37.03254395 37.54909851 36.24438477 37.26449585 C34.64015289 36.68385999 33.03688786 36.10054637 31.43457031 35.51464844 C29.00825126 34.6280152 26.57866245 33.75086289 24.1484375 32.875 C16.63977065 30.15541717 9.25315951 27.3548816 2 24 C0.01071657 23.30200581 -1.98504093 22.61998741 -4 22 C-3.32692542 16.97481209 -2.45601155 12.02835295 -1.4375 7.0625 C-1.29892578 6.37865234 -1.16035156 5.69480469 -1.01757812 4.99023438 C-0.68016936 3.32646014 -0.34034121 1.66317685 0 0 Z " fill="#F18C30" transform="translate(438,266)"/>
<path d="M0 0 C8.05312845 0.49027726 15.61150346 1.89465286 23.4375 3.8125 C34.58555482 6.47000638 45.74936846 8.81704164 57 11 C57 19.25 57 27.5 57 36 C39.64516092 32.79862192 22.34069064 29.34173174 5.0625 25.75 C4.26996826 25.58701416 3.47743652 25.42402832 2.66088867 25.25610352 C-2.76530505 24.11734748 -2.76530505 24.11734748 -5 23 C-4.80664062 22.34515625 -4.61328125 21.6903125 -4.4140625 21.015625 C-2.43018242 14.06222353 -1.08522197 7.14396287 0 0 Z " fill="#EFF0F0" transform="translate(574,402)"/>
<path d="M0 0 C5.43956553 3.11728947 9.1330267 8.16021563 11.02734375 14.1171875 C11.44989351 16.39982742 11.53892162 18.53089665 11.53125 20.8515625 C11.53511719 22.03298828 11.53511719 22.03298828 11.5390625 23.23828125 C11.40625 25.1640625 11.40625 25.1640625 10.40625 26.1640625 C7.95794574 26.25250043 5.53804401 26.27935002 3.08984375 26.26171875 C2.35878922 26.2603038 1.62773468 26.25888885 0.87452698 26.25743103 C-1.46910632 26.25181658 -3.81264539 26.23926172 -6.15625 26.2265625 C-7.74153508 26.22154936 -9.32682166 26.21698613 -10.91210938 26.21289062 C-14.8060261 26.20184247 -18.69987205 26.18456822 -22.59375 26.1640625 C-21.83300157 27.79380814 -21.05976567 29.41772898 -20.28125 31.0390625 C-19.85199219 31.94398438 -19.42273438 32.84890625 -18.98046875 33.78125 C-17.6738112 36.42855726 -17.6738112 36.42855726 -14.59375 38.1640625 C-11.33209852 38.48320784 -11.33209852 38.48320784 -7.71875 38.4140625 C-6.50445313 38.41921875 -5.29015625 38.424375 -4.0390625 38.4296875 C-0.74015179 38.17534971 1.4135477 37.4779318 4.40625 36.1640625 C5.39625 36.1640625 6.38625 36.1640625 7.40625 36.1640625 C8.8668785 38.81145166 9.40625 40.05854584 9.40625 43.1640625 C7.82425369 43.81316404 6.24059276 44.45820944 4.65625 45.1015625 C3.33367188 45.64103516 3.33367188 45.64103516 1.984375 46.19140625 C-5.39725361 48.97629341 -12.92491843 49.15389518 -20.3828125 46.40625 C-25.57418937 43.48954003 -29.51600101 38.7527733 -31.7890625 33.29296875 C-33.98771493 24.74383963 -33.66910295 16.01288554 -29.23046875 8.29296875 C-22.1280662 -0.94523982 -11.0047709 -3.54671833 0 0 Z " fill="#F3F4F4" transform="translate(548.59375,690.8359375)"/>
<path d="M0 0 C1.890625 0.828125 1.890625 0.828125 4.453125 2.328125 C4.453125 6.09500364 4.21775183 7.24002805 2.453125 10.328125 C1.64875 9.998125 0.844375 9.668125 0.015625 9.328125 C-5.59875935 7.75215746 -10.39202298 7.56993632 -15.921875 9.515625 C-18.93511075 11.59619254 -19.95965672 13.04453876 -21.546875 16.328125 C-22.29182789 22.06627567 -23.00279948 29.01206705 -19.734375 34.078125 C-17.28592154 36.59653427 -15.62082881 38.21348001 -12.05859375 38.59375 C-6.83815987 38.56486793 -2.42501487 38.43759089 2.453125 36.328125 C5.07698987 39.38930068 5.453125 40.05985627 5.453125 44.328125 C0.3722134 47.37991855 -3.6544365 47.87481521 -9.421875 47.828125 C-10.22326904 47.82312988 -11.02466309 47.81813477 -11.8503418 47.81298828 C-17.87452544 47.63437533 -22.19296871 46.75132423 -26.546875 42.328125 C-27.04316406 41.82410156 -27.53945313 41.32007813 -28.05078125 40.80078125 C-33.97410733 34.1686811 -34.14612389 28.06762333 -33.9140625 19.546875 C-33.5826778 14.21651682 -32.26190784 10.25617578 -28.546875 6.328125 C-20.01168265 -0.57360812 -10.84124048 -2.85995915 0 0 Z " fill="#F6F6F7" transform="translate(601.546875,690.671875)"/>
<path d="M0 0 C0 4.62 0 9.24 0 14 C3.96 14 7.92 14 12 14 C12 16.31 12 18.62 12 21 C8.04 21 4.08 21 0 21 C0.495 36.345 0.495 36.345 1 52 C4.63 52 8.26 52 12 52 C12.33 54.31 12.66 56.62 13 59 C8.22146519 61.82214644 3.39796279 61.52134856 -2 61 C-5.79949555 59.41687686 -7.91237661 57.52485351 -10 54 C-10.34057617 50.60839844 -10.34057617 50.60839844 -10.29296875 46.609375 C-10.28872391 45.90476135 -10.28447906 45.20014771 -10.28010559 44.47418213 C-10.26336538 42.23239288 -10.22572404 39.99151569 -10.1875 37.75 C-10.17244704 36.22657552 -10.1587597 34.70313689 -10.14648438 33.1796875 C-10.11347791 29.45283059 -10.06172854 25.72650437 -10 22 C-12.64 22 -15.28 22 -18 22 C-18 19.36 -18 16.72 -18 14 C-14.535 13.505 -14.535 13.505 -11 13 C-10.67 9.04 -10.34 5.08 -10 1 C-2.25 0 -2.25 0 0 0 Z " fill="#F9F9FA" transform="translate(630,677)"/>
<path d="M0 0 C3.3 0 6.6 0 10 0 C10.11628218 7.42391846 10.20491008 14.84763789 10.25906086 22.27228546 C10.28506206 25.72058981 10.32028189 29.16826729 10.37719727 32.61621094 C10.44234009 36.58781206 10.46625905 40.55916684 10.48828125 44.53125 C10.51408768 45.75863892 10.5398941 46.98602783 10.56648254 48.25061035 C10.56875025 55.21965887 10.12334679 60.86061528 5 66 C1.76482324 67.92128476 -0.49139856 68.22391056 -4.25 68.125 C-5.14203125 68.10695313 -6.0340625 68.08890625 -6.953125 68.0703125 C-7.62859375 68.04710937 -8.3040625 68.02390625 -9 68 C-9.99 64.535 -9.99 64.535 -11 61 C-10.36191406 60.80664062 -9.72382813 60.61328125 -9.06640625 60.4140625 C-7.82697266 60.02347656 -7.82697266 60.02347656 -6.5625 59.625 C-5.73878906 59.36976563 -4.91507812 59.11453125 -4.06640625 58.8515625 C-1.82201984 58.19117773 -1.82201984 58.19117773 -1 56 C-0.88055524 54.2134547 -0.82277682 52.42263749 -0.79467773 50.63232422 C-0.77473251 49.51131317 -0.75478729 48.39030212 -0.73423767 47.23532104 C-0.71752518 46.02071198 -0.70081268 44.80610291 -0.68359375 43.5546875 C-0.6524221 41.69446457 -0.6524221 41.69446457 -0.62062073 39.79666138 C-0.56622295 36.49888177 -0.51599905 33.2010728 -0.46777344 29.90319824 C-0.41754766 26.53827347 -0.36186723 23.1734395 -0.30664062 19.80859375 C-0.19938443 13.20580146 -0.09762811 6.60294128 0 0 Z " fill="#FBFBFB" transform="translate(495,691)"/>
<path d="M0 0 C3.55971076 1.4238843 6.22827667 3.55561566 8.26953125 6.86328125 C10.1649609 12.40766637 10.21360026 19.61306458 8.234375 25.13671875 C6.37631539 28.06389996 3.88967325 30.14831407 1 32 C-3.03132375 32.79828193 -7.17629956 32.90440654 -10.9140625 31.05078125 C-14.21895147 28.47036302 -15.74051877 25.90893049 -17 22 C-17.86558368 14.61234395 -17.57351708 8.97098063 -13 3 C-9.51137865 -1.00545415 -4.94829231 -0.63848933 0 0 Z " fill="#212832" transform="translate(464,698)"/>
<path d="M0 0 C0.66 0.33 1.32 0.66 2 1 C2.125 7.75 2.125 7.75 1 10 C0.41992188 9.94199219 -0.16015625 9.88398437 -0.7578125 9.82421875 C-5.06909032 9.57521756 -8.05339239 9.50477575 -11.5 12.3125 C-15.21858893 16.3099831 -15.1549131 19.35358565 -15.31640625 24.63671875 C-15.35830078 25.93544922 -15.40019531 27.23417969 -15.44335938 28.57226562 C-15.48316987 29.94400761 -15.52288216 31.31575244 -15.5625 32.6875 C-15.60570835 34.07097645 -15.64932339 35.45444027 -15.69335938 36.83789062 C-15.79958028 40.22515719 -15.90162358 43.61249799 -16 47 C-19.3 47 -22.6 47 -26 47 C-26 31.82 -26 16.64 -26 1 C-23.03 1 -20.06 1 -17 1 C-17 2.98 -17 4.96 -17 7 C-16.34 7 -15.68 7 -15 7 C-14.6596875 6.1028125 -14.6596875 6.1028125 -14.3125 5.1875 C-10.88369915 -0.52716808 -6.01041707 -0.39412571 0 0 Z " fill="#FAFAFB" transform="translate(430,690)"/>
<path d="M0 0 C14.10714286 0 14.10714286 0 20 3 C23.0929719 6.17868937 23.40803665 8.57115651 23.375 12.9375 C23.38273437 13.95714844 23.39046875 14.97679687 23.3984375 16.02734375 C22.93255502 19.50319242 22.19379183 21.2647026 20 24 C13.6067433 28.22248043 7.41928226 27.20997969 0 27 C0 18.09 0 9.18 0 0 Z " fill="#1E2530" transform="translate(361,678)"/>
<path d="M0 0 C2.83595797 1.36868319 3.87762489 2.49668577 6 5 C6 6.98 6 8.96 6 11 C-1.26 11 -8.52 11 -16 11 C-14.80530165 3.83180987 -14.80530165 3.83180987 -10.875 0.921875 C-7.27373375 -0.84874757 -3.87335447 -0.85614252 0 0 Z " fill="#232B35" transform="translate(543,698)"/>
<path d="M0 0 C4.88947368 1.22236842 4.88947368 1.22236842 6.5 3.875 C7 6.3125 7 6.3125 6.5 8.875 C4.375 11.25 4.375 11.25 1.5 12.875 C-2.08015376 12.875 -3.76980125 12.53453435 -6.4375 10.125 C-7.5 7.875 -7.5 7.875 -7.375 5.3125 C-5.78190839 0.87460194 -4.88674797 -0.17452671 0 0 Z " fill="#EDEDEF" transform="translate(500.5,668.125)"/>
<path d="M0 0 C0.66 0.33 1.32 0.66 2 1 C0 4 0 4 -2.03125 4.84375 C-4.25812285 5.8686666 -4.25812285 5.8686666 -4.90625 8.53125 C-5.1021875 9.5109375 -5.298125 10.490625 -5.5 11.5 C-6.09375 14.46875 -6.09375 14.46875 -7 17 C-9.09375 18.34375 -9.09375 18.34375 -11 19 C-9.85084068 11.43613048 -7.63051741 6.04178486 -1.6875 1.0625 C-1.130625 0.711875 -0.57375 0.36125 0 0 Z " fill="#453031" transform="translate(504,291)"/>
<path d="M0 0 C1.32 0.33 2.64 0.66 4 1 C3.52949219 1.31453125 3.05898438 1.6290625 2.57421875 1.953125 C-0.88002433 4.32747014 -3.72778504 6.39118801 -6 10 C-5.25 4.25 -5.25 4.25 -3 2 C-2.01 2 -1.02 2 0 2 C0 1.34 0 0.68 0 0 Z " fill="#10323B" transform="translate(504,293)"/>
</svg>
